<svg width="2001" height="420" viewBox="0 0 2001 420" fill="none" xmlns="http://www.w3.org/2000/svg">
<mask id="mask0_4293_1332" style="mask-type:luminance" maskUnits="userSpaceOnUse" x="0" y="0" width="600" height="420">
<path d="M600 0H0V420H600V0Z" fill="white"/>
</mask>
<g mask="url(#mask0_4293_1332)">
<path d="M600 375.039V345.639C600 340.169 590.9 334.969 574.54 330.269L574.93 293.669C574.93 237.299 557.6 182.289 525.3 136.099C492.99 89.9092 447.27 54.7591 394.32 35.4191L393.15 28.0791C392.54 24.1591 390.83 20.4891 388.22 17.4891C385.61 14.4991 382.21 12.3091 378.4 11.1691C327.64 -3.73086 273.66 -3.73086 222.89 11.1691C219.09 12.3091 215.69 14.5092 213.08 17.4992C210.47 20.4892 208.77 24.1591 208.15 28.0791L207.04 34.9191C153.77 54.0691 107.71 89.2092 75.1499 135.509C42.5899 181.819 25.11 237.049 25.11 293.659L25.1104 330.373C8.98035 335.053 -4.20213e-05 340.199 -4.20213e-05 345.629V375.029C-0.260042 376.749 0.109946 378.509 1.04995 379.979C5.15995 376.039 15.29 371.059 28.07 367.649C46.09 362.759 72.0799 358.419 103.91 354.949C111.08 354.129 118.33 354.859 125.2 357.069C132.06 359.279 138.38 362.939 143.71 367.789C163.45 385.849 189.24 395.869 216 395.879H383.98C410.74 395.879 436.53 385.859 456.27 367.789C461.6 362.919 467.9 359.239 474.77 356.999C481.63 354.759 488.9 354.009 496.07 354.809C527.9 358.279 553.89 362.619 571.91 367.509C584.75 370.979 593.55 374.759 597.53 378.729C597.96 379.159 598.48 379.529 598.91 379.939C599.84 378.479 600.23 376.739 600 375.029V375.039Z" fill="#FFF100"/>
<path d="M299.97 419.999C142.82 419.999 13.7802 399.509 1.04016 379.989C5.15016 376.039 15.2802 371.068 28.0602 367.658C46.0802 362.768 72.0702 358.429 103.9 354.959C111.07 354.139 118.32 354.869 125.19 357.079C132.05 359.289 138.37 362.949 143.7 367.799C163.44 385.859 189.23 395.879 215.99 395.889H383.97C410.73 395.889 436.52 385.869 456.26 367.799C461.59 362.929 467.89 359.249 474.76 357.009C481.62 354.769 488.89 354.019 496.06 354.819C527.89 358.289 553.88 362.629 571.9 367.519C584.74 370.989 593.54 374.769 597.52 378.739C597.95 379.169 598.47 379.539 598.9 379.949C586.08 399.389 457.12 419.999 299.97 419.999Z" fill="url(#paint0_radial_4293_1332)"/>
<path d="M144.1 313.13C143.89 306.39 143.75 299.63 143.75 292.81C143.83 190.61 167.71 98.9397 207.06 34.9297C153.79 54.0797 107.72 89.2097 75.16 135.52C42.59 181.83 25.12 237.06 25.11 293.67V330.37C49.93 323.2 91.75 317.18 144.1 313.13Z" fill="url(#paint1_linear_4293_1332)"/>
<path d="M574.89 293.67C574.98 229.87 552.79 168.04 512.16 118.85C528.72 170.1 538.17 229.48 538.17 292.81C538.17 302.77 537.9 312.62 537.45 322.38C549.92 324.32 562.36 326.958 574.54 330.268L574.89 293.67Z" fill="url(#paint2_linear_4293_1332)"/>
<path d="M299.97 86.3184L235.65 195.878L299.97 235.828L299.99 235.808V86.3583L299.97 86.3184Z" fill="#0A0A0A"/>
<path d="M300 86.3594V235.809L364.34 195.929L300 86.3694V86.3594Z" fill="#4A4D54"/>
<path d="M300 257.51V309.62C301.21 307.89 364.36 217.57 364.36 217.52L300 257.51Z" fill="#4A4D54"/>
<path d="M300 257.529L235.64 217.609L300 309.659V257.509V257.529Z" fill="#0A0A0A"/>
</g>
<path d="M903.62 330.511V234.631H796.86V330.511H759.46V112.911H796.86V204.371H903.62V112.911H941.36V330.511H903.62Z" fill="white"/>
<path d="M1128.37 330.511L1120.89 304.331C1118.85 307.731 1115.79 311.131 1111.71 314.531C1107.85 317.931 1102.98 320.991 1097.09 323.711C1091.42 326.431 1084.85 328.698 1077.37 330.511C1069.89 332.098 1061.61 332.891 1052.55 332.891C1043.25 332.891 1034.53 331.871 1026.37 329.831C1018.21 327.564 1011.07 324.278 1004.95 319.971C998.825 315.664 993.952 310.224 990.325 303.651C986.925 296.851 985.225 288.804 985.225 279.511C985.225 263.418 991.005 251.518 1002.57 243.811C1014.35 235.878 1032.71 230.664 1057.65 228.171L1112.39 222.731C1112.16 216.384 1111.25 210.831 1109.67 206.071C1108.31 201.084 1105.93 196.891 1102.53 193.491C1099.13 190.091 1094.59 187.484 1088.93 185.671C1083.26 183.858 1076.01 182.951 1067.17 182.951C1059.01 182.951 1052.32 183.744 1047.11 185.331C1041.89 186.918 1037.7 189.184 1034.53 192.131C1031.35 195.078 1029.09 198.704 1027.73 203.011C1026.59 207.318 1026.03 212.191 1026.03 217.631L990.665 217.971C990.665 208.904 991.685 200.518 993.725 192.811C995.992 185.104 999.959 178.418 1005.63 172.751C1011.52 166.858 1019.34 162.324 1029.09 159.151C1038.83 155.751 1051.41 154.051 1066.83 154.051C1084.51 154.051 1098.67 155.864 1109.33 159.491C1120.21 163.118 1128.48 168.331 1134.15 175.131C1139.81 181.931 1143.55 190.091 1145.37 199.611C1147.18 209.131 1148.09 219.784 1148.09 231.571V330.511H1128.37ZM1112.39 250.271L1063.09 255.711C1047.9 257.524 1037.36 260.244 1031.47 263.871C1025.57 267.271 1022.63 272.371 1022.63 279.171C1022.63 287.104 1025.91 293.338 1032.49 297.871C1039.06 302.178 1048.81 304.331 1061.73 304.331C1077.82 304.331 1090.29 300.024 1099.13 291.411C1107.97 282.798 1112.39 270.898 1112.39 255.711V250.271Z" fill="white"/>
<path d="M1279.95 186.351C1278.13 186.351 1276.43 186.238 1274.85 186.011C1273.26 185.784 1271.67 185.671 1270.09 185.671C1261.02 185.671 1253.65 186.918 1247.99 189.411C1242.32 191.678 1237.9 194.964 1234.73 199.271C1231.55 203.578 1229.4 208.678 1228.27 214.571C1227.13 220.464 1226.57 226.924 1226.57 233.951V330.511H1190.19V156.431H1209.57L1218.07 180.571C1219.43 177.624 1221.47 174.678 1224.19 171.731C1227.13 168.558 1230.87 165.724 1235.41 163.231C1239.94 160.511 1245.38 158.358 1251.73 156.771C1258.07 154.958 1265.55 154.051 1274.17 154.051H1279.95V186.351Z" fill="white"/>
<path d="M1445.8 330.511L1437.64 305.691C1436.05 308.638 1433.56 311.698 1430.16 314.871C1426.99 318.044 1422.68 320.991 1417.24 323.711C1412.03 326.431 1405.57 328.698 1397.86 330.511C1390.15 332.098 1381.2 332.891 1371 332.891C1356.72 332.891 1344.71 330.511 1334.96 325.751C1325.44 320.764 1317.85 314.191 1312.18 306.031C1306.51 297.871 1302.43 288.464 1299.94 277.811C1297.67 266.931 1296.54 255.484 1296.54 243.471C1296.54 231.684 1297.67 220.351 1299.94 209.471C1302.21 198.591 1306.17 189.071 1311.84 180.911C1317.51 172.751 1325.1 166.291 1334.62 161.531C1344.14 156.544 1356.15 154.051 1370.66 154.051C1379.27 154.051 1386.87 154.731 1393.44 156.091C1400.01 157.451 1405.68 159.264 1410.44 161.531C1415.2 163.798 1419.17 166.404 1422.34 169.351C1425.51 172.071 1428.01 174.904 1429.82 177.851V90.1309H1465.52V330.511H1445.8ZM1430.16 243.471C1430.16 235.084 1429.59 227.378 1428.46 220.351C1427.33 213.098 1424.95 206.864 1421.32 201.651C1417.92 196.211 1413.05 192.018 1406.7 189.071C1400.35 186.124 1391.97 184.651 1381.54 184.651C1371.57 184.651 1363.41 186.124 1357.06 189.071C1350.94 191.791 1346.07 195.758 1342.44 200.971C1339.04 206.184 1336.66 212.418 1335.3 219.671C1334.17 226.698 1333.6 234.631 1333.6 243.471C1333.6 252.311 1334.17 260.358 1335.3 267.611C1336.66 274.864 1339.04 281.098 1342.44 286.311C1346.07 291.524 1350.94 295.604 1357.06 298.551C1363.18 301.498 1371.23 302.971 1381.2 302.971C1391.4 302.971 1399.67 301.611 1406.02 298.891C1412.37 295.944 1417.24 291.864 1420.64 286.651C1424.27 281.438 1426.76 275.204 1428.12 267.951C1429.48 260.471 1430.16 252.311 1430.16 243.471Z" fill="white"/>
<path d="M1635.54 330.511V232.931C1635.54 224.771 1635.09 217.744 1634.18 211.851C1633.27 205.731 1631.23 200.631 1628.06 196.551C1625.11 192.471 1620.81 189.524 1615.14 187.711C1609.7 185.671 1602.33 184.651 1593.04 184.651C1583.75 184.651 1576.15 185.671 1570.26 187.711C1564.59 189.524 1560.17 192.471 1557 196.551C1553.83 200.404 1551.56 205.391 1550.2 211.511C1549.07 217.631 1548.5 224.771 1548.5 232.931L1547.82 330.511H1512.12V90.1309H1547.82V178.191C1549.41 175.018 1551.67 171.958 1554.62 169.011C1557.57 166.064 1561.19 163.571 1565.5 161.531C1570.03 159.264 1575.36 157.451 1581.48 156.091C1587.6 154.731 1594.85 154.051 1603.24 154.051C1617.52 154.051 1629.08 155.978 1637.92 159.831C1646.76 163.684 1653.67 169.238 1658.66 176.491C1663.65 183.518 1667.05 192.131 1668.86 202.331C1670.67 212.531 1671.58 223.864 1671.58 236.331V330.511H1635.54Z" fill="white"/>
<path d="M1851.59 330.511L1844.11 304.331C1842.07 307.731 1839.01 311.131 1834.93 314.531C1831.07 317.931 1826.2 320.991 1820.31 323.711C1814.64 326.431 1808.07 328.698 1800.59 330.511C1793.11 332.098 1784.83 332.891 1775.77 332.891C1766.47 332.891 1757.75 331.871 1749.59 329.831C1741.43 327.564 1734.29 324.278 1728.17 319.971C1722.05 315.664 1717.17 310.224 1713.55 303.651C1710.15 296.851 1708.45 288.804 1708.45 279.511C1708.45 263.418 1714.23 251.518 1725.79 243.811C1737.57 235.878 1755.93 230.664 1780.87 228.171L1835.61 222.731C1835.38 216.384 1834.47 210.831 1832.89 206.071C1831.53 201.084 1829.15 196.891 1825.75 193.491C1822.35 190.091 1817.81 187.484 1812.15 185.671C1806.48 183.858 1799.23 182.951 1790.39 182.951C1782.23 182.951 1775.54 183.744 1770.33 185.331C1765.11 186.918 1760.92 189.184 1757.75 192.131C1754.57 195.078 1752.31 198.704 1750.95 203.011C1749.81 207.318 1749.25 212.191 1749.25 217.631L1713.89 217.971C1713.89 208.904 1714.91 200.518 1716.95 192.811C1719.21 185.104 1723.18 178.418 1728.85 172.751C1734.74 166.858 1742.56 162.324 1752.31 159.151C1762.05 155.751 1774.63 154.051 1790.05 154.051C1807.73 154.051 1821.89 155.864 1832.55 159.491C1843.43 163.118 1851.7 168.331 1857.37 175.131C1863.03 181.931 1866.77 190.091 1868.59 199.611C1870.4 209.131 1871.31 219.784 1871.31 231.571V330.511H1851.59ZM1835.61 250.271L1786.31 255.711C1771.12 257.524 1760.58 260.244 1754.69 263.871C1748.79 267.271 1745.85 272.371 1745.85 279.171C1745.85 287.104 1749.13 293.338 1755.71 297.871C1762.28 302.178 1772.03 304.331 1784.95 304.331C1801.04 304.331 1813.51 300.024 1822.35 291.411C1831.19 282.798 1835.61 270.898 1835.61 255.711V250.271Z" fill="white"/>
<path d="M1955.67 185.671V280.531C1955.67 284.611 1956.24 288.124 1957.37 291.071C1958.5 294.018 1960.66 296.511 1963.83 298.551C1967 300.364 1971.42 301.611 1977.09 302.291C1982.98 302.971 1990.69 303.084 2000.21 302.631V331.871C1985.93 332.778 1973.58 332.551 1963.15 331.191C1952.95 329.831 1944.45 327.111 1937.65 323.031C1931.08 318.951 1926.2 313.398 1923.03 306.371C1920.08 299.344 1918.61 290.731 1918.61 280.531V185.671H1893.79V163.911L1918.61 156.431V112.911H1954.65V156.431H2000.21V185.671H1955.67Z" fill="white"/>
<defs>
<radialGradient id="paint0_radial_4293_1332" cx="0" cy="0" r="1" gradientUnits="userSpaceOnUse" gradientTransform="translate(301.337 532.735) scale(223.691 224.197)">
<stop stop-color="#FFF100"/>
<stop offset="0.23" stop-color="#F9E500"/>
<stop offset="0.67" stop-color="#F0D500"/>
<stop offset="1" stop-color="#EDCF00"/>
</radialGradient>
<linearGradient id="paint1_linear_4293_1332" x1="116.075" y1="330.37" x2="116.075" y2="34.9297" gradientUnits="userSpaceOnUse">
<stop stop-color="#EDCF00"/>
<stop offset="0.33" stop-color="#F0D500"/>
<stop offset="0.77" stop-color="#F9E500"/>
<stop offset="1" stop-color="#FFF100"/>
</linearGradient>
<linearGradient id="paint2_linear_4293_1332" x1="543.515" y1="332.528" x2="543.515" y2="118.85" gradientUnits="userSpaceOnUse">
<stop stop-color="#EDCF00"/>
<stop offset="0.59" stop-color="#F9E500"/>
<stop offset="1" stop-color="#FFF100"/>
</linearGradient>
</defs>
</svg>
